<?xml version="1.0" standalone="no"?>
<!DOCTYPE svg PUBLIC "-//W3C//DTD SVG 20010904//EN"
 "http://www.w3.org/TR/2001/REC-SVG-20010904/DTD/svg10.dtd">
<svg version="1.0" xmlns="http://www.w3.org/2000/svg"
 width="336.000000pt" height="304.000000pt" viewBox="0 0 336.000000 304.000000"
 preserveAspectRatio="xMidYMid meet">

<g transform="translate(0.000000,304.000000) scale(0.100000,-0.100000)"
fill="#000000" stroke="none">
<path d="M1494 2892 c3 -5 81 -12 173 -16 103 -4 170 -11 174 -18 4 -6 12 -7
20 -3 18 12 -15 23 -68 24 -23 1 -45 6 -48 11 -4 6 -59 10 -131 10 -69 0 -123
-4 -120 -8z"/>
<path d="M1443 2873 c9 -2 25 -2 35 0 9 3 1 5 -18 5 -19 0 -27 -2 -17 -5z"/>
<path d="M1400 2860 c0 -5 5 -10 10 -10 6 0 10 5 10 10 0 6 -4 10 -10 10 -5 0
-10 -4 -10 -10z"/>
<path d="M1348 2843 c-10 -2 -18 -8 -18 -13 0 -5 -6 -10 -12 -13 -7 -2 -2 -2
12 0 14 3 27 8 30 12 3 5 12 11 20 14 13 5 13 5 0 5 -8 0 -23 -2 -32 -5z"/>
<path d="M1883 2843 c9 -2 25 -2 35 0 9 3 1 5 -18 5 -19 0 -27 -2 -17 -5z"/>
<path d="M1937 2834 c-15 -15 -6 -24 23 -24 20 0 39 -9 54 -25 13 -14 32 -25
43 -25 11 0 26 -7 33 -15 16 -19 31 -20 24 -1 -3 8 -15 17 -27 21 -12 4 -24 8
-27 10 -3 1 -14 5 -25 10 -11 5 -24 14 -28 22 -4 7 -19 13 -32 13 -13 0 -25 5
-27 11 -2 5 -7 7 -11 3z"/>
<path d="M1260 2794 c-32 -16 -78 -64 -61 -64 6 0 17 5 24 10 7 6 27 21 45 34
37 27 31 40 -8 20z"/>
<path d="M2365 2732 c-5 -4 -11 -21 -11 -39 -1 -23 2 -30 12 -26 8 3 14 13 14
23 0 10 3 25 6 34 6 17 -4 21 -21 8z"/>
<path d="M1166 2715 c-3 -9 0 -15 9 -15 16 0 20 16 6 24 -5 3 -11 -1 -15 -9z"/>
<path d="M2125 2720 c-4 -7 1 -13 14 -17 12 -3 21 -9 21 -14 0 -14 160 -11
174 4 10 10 -7 12 -86 12 -72 0 -101 4 -107 14 -6 10 -10 10 -16 1z"/>
<path d="M1113 2665 c-3 -9 -3 -19 1 -22 3 -4 6 1 6 10 0 8 6 18 13 20 9 4 9
6 -1 6 -7 1 -15 -6 -19 -14z"/>
<path d="M1492 2650 c-12 -10 -25 -33 -28 -52 -8 -45 -24 -78 -51 -104 -13
-12 -23 -25 -23 -30 0 -5 -14 -22 -31 -37 -18 -15 -29 -30 -26 -33 6 -7 77 63
77 76 0 6 6 10 13 10 6 0 26 29 42 65 17 36 35 65 40 65 6 0 3 5 -5 10 -24 16
8 32 52 26 32 -3 35 -2 23 10 -19 19 -56 17 -83 -6z"/>
<path d="M1691 2656 c-10 -12 -6 -13 26 -9 35 5 39 3 52 -29 13 -31 14 -31 18
-10 9 46 -67 83 -96 48z"/>
<path d="M2320 2635 c-7 -8 -27 -17 -46 -21 -37 -7 -47 -24 -14 -24 11 0 20 5
20 10 0 6 11 10 25 10 15 0 25 6 25 14 0 8 6 17 13 19 7 4 8 6 1 6 -6 1 -17
-6 -24 -14z"/>
<path d="M1650 2630 c0 -6 -9 -25 -21 -41 -11 -16 -18 -29 -14 -29 17 0 -104
-107 -126 -112 -23 -4 -25 -2 -21 24 2 15 8 28 13 28 5 0 9 7 9 15 0 8 4 15 9
15 5 0 12 12 16 27 3 15 12 31 18 35 6 4 8 10 5 14 -10 10 -36 -20 -44 -50 -3
-14 -10 -26 -14 -26 -5 0 -11 -13 -15 -30 -4 -16 -11 -30 -16 -30 -5 0 -9 -11
-9 -25 0 -20 5 -25 25 -25 14 0 25 5 25 10 0 6 6 10 14 10 8 0 21 6 28 13 8 6
22 17 33 23 10 6 23 19 29 30 6 10 17 23 24 27 6 4 12 14 12 21 0 8 7 19 16
27 14 12 15 8 8 -36 -4 -27 -15 -64 -25 -81 -19 -34 -15 -51 8 -33 7 7 16 29
19 51 4 21 11 41 15 44 15 9 10 91 -6 104 -12 10 -15 10 -15 0z"/>
<path d="M1090 2620 c0 -5 5 -10 10 -10 6 0 10 5 10 10 0 6 -4 10 -10 10 -5 0
-10 -4 -10 -10z"/>
<path d="M1080 2581 c0 -11 -4 -21 -9 -23 -4 -1 -12 -14 -16 -28 -7 -22 -6
-23 9 -8 16 17 34 78 22 78 -3 0 -6 -9 -6 -19z"/>
<path d="M1810 2561 c0 -22 -66 -90 -87 -91 -7 0 -13 -4 -13 -9 0 -5 -13 -12
-30 -16 -16 -4 -30 -11 -30 -16 0 -15 33 -9 65 12 17 10 37 22 45 25 8 4 27
20 42 36 32 34 38 35 38 5 0 -24 25 -51 58 -61 22 -7 38 -36 20 -36 -26 0 -99
-44 -128 -76 -40 -47 -38 -66 3 -26 18 18 43 32 55 32 12 0 22 5 22 10 0 17
83 11 105 -8 42 -36 55 -69 55 -140 0 -37 -5 -73 -11 -79 -6 -6 -13 -37 -15
-69 -1 -31 -7 -60 -12 -63 -5 -3 -13 -17 -17 -30 -8 -25 -59 -81 -74 -81 -5 0
-14 -6 -20 -14 -7 -8 -26 -18 -42 -21 -16 -4 -29 -11 -29 -16 0 -5 -11 -9 -24
-9 -14 0 -28 -4 -31 -10 -3 -5 -46 -10 -96 -10 -53 0 -89 4 -89 10 0 6 -13 10
-28 10 -16 0 -32 3 -36 8 -4 4 -11 7 -14 8 -12 1 -47 15 -62 25 -8 5 -25 13
-38 19 -12 5 -27 21 -32 35 -5 14 -14 25 -20 25 -5 0 -10 11 -10 24 0 14 -5
28 -11 31 -6 4 -8 13 -5 21 3 7 1 16 -4 19 -6 4 -10 13 -10 21 0 12 4 12 23 2
12 -7 25 -17 28 -22 9 -12 29 2 29 20 0 8 -10 14 -23 14 -24 0 -57 28 -57 47
0 6 -5 13 -12 15 -7 3 -14 31 -16 74 -4 67 -3 70 28 99 28 26 38 30 91 30 33
0 63 -4 67 -10 4 -5 16 -15 27 -21 11 -6 24 -20 30 -32 12 -27 25 -29 25 -3 0
10 -24 41 -54 70 -47 44 -60 51 -95 51 -22 0 -43 -5 -47 -11 -4 -8 -9 -7 -15
2 -8 11 -12 11 -23 -3 -28 -38 -39 -22 -33 49 4 37 10 69 14 72 17 13 32 50
23 56 -6 3 -10 -1 -10 -9 0 -9 -4 -16 -9 -16 -9 0 -24 -38 -22 -57 1 -6 -3
-14 -9 -18 -5 -3 -10 -31 -10 -62 l0 -55 -30 4 c-27 4 -30 2 -24 -16 4 -12 13
-29 22 -38 14 -17 13 -18 -16 -18 -39 0 -40 -8 -2 -40 17 -14 30 -34 30 -47 0
-13 3 -23 8 -23 12 0 34 -54 22 -58 -16 -6 -12 -22 5 -22 10 0 15 -10 15 -30
0 -16 4 -30 9 -30 5 0 11 -19 15 -42 4 -23 14 -50 23 -60 12 -13 14 -34 12
-91 -4 -67 -7 -76 -34 -100 -17 -15 -35 -27 -41 -27 -6 0 -13 25 -17 58 -5 56
-20 98 -42 114 -5 4 -6 8 -1 8 5 0 3 7 -4 15 -7 9 -30 15 -54 16 -46 1 -93 24
-110 54 -6 11 -15 23 -21 27 -5 4 7 8 28 8 45 0 64 15 70 56 l4 29 2 -28 c0
-16 -4 -37 -10 -49 -9 -16 -7 -24 12 -44 12 -13 26 -24 31 -24 12 0 10 58 -2
65 -6 3 -10 52 -10 111 0 63 -4 104 -10 104 -5 0 -11 -26 -11 -57 -1 -32 -4
-46 -6 -30 -2 15 -8 27 -13 27 -5 0 -11 26 -15 58 -3 31 -10 65 -15 74 -6 10
-10 47 -10 83 0 42 -4 64 -10 60 -13 -8 -13 -142 0 -150 6 -3 10 -21 10 -40 0
-18 5 -35 10 -37 6 -2 14 -44 17 -95 l6 -91 -46 -3 c-25 -2 -43 -1 -41 2 2 4
-3 12 -11 19 -28 23 -18 -38 10 -64 14 -13 25 -28 25 -35 0 -6 5 -11 11 -11 6
0 17 -7 25 -15 9 -9 34 -15 60 -15 42 0 44 -1 44 -29 0 -34 16 -50 23 -24 4
17 5 17 6 1 0 -10 6 -18 11 -18 6 0 10 -9 10 -20 0 -15 -7 -20 -29 -20 -24 0
-28 3 -24 20 4 16 2 19 -11 14 -9 -3 -16 -10 -16 -15 0 -5 -7 -9 -17 -9 -29 0
-8 -10 41 -19 26 -5 49 -5 52 0 14 23 24 4 24 -42 0 -40 -5 -56 -22 -70 l-21
-19 22 0 c12 0 32 11 45 25 13 14 27 25 32 25 5 0 21 14 36 32 21 25 28 29 28
16 0 -21 16 -24 24 -5 3 6 3 0 0 -15 -5 -21 -2 -28 9 -28 8 0 18 -6 20 -12 3
-7 6 -3 6 10 1 12 -3 22 -7 22 -14 0 -1 58 14 64 7 3 11 0 8 -7 -2 -7 7 -24
21 -37 41 -38 28 -124 -23 -151 -26 -14 -22 -44 9 -71 10 -9 19 -21 19 -27 0
-6 12 -18 28 -28 15 -10 30 -22 34 -27 3 -5 68 -10 143 -10 120 -1 137 1 146
17 6 9 19 17 30 17 21 0 65 39 87 79 12 20 11 25 -9 42 -18 15 -25 17 -37 6
-13 -10 -12 -12 11 -15 15 -2 27 -7 27 -13 0 -13 -73 -78 -87 -79 -7 0 -13 -4
-13 -10 0 -5 -3 -10 -7 -9 -16 2 -53 -14 -53 -22 0 -5 -36 -9 -80 -9 -47 0
-80 4 -80 10 0 6 -13 10 -28 10 -15 0 -33 5 -40 12 -7 7 -12 8 -12 3 0 -5 -13
4 -30 20 -16 16 -30 35 -30 42 0 7 -4 13 -9 13 -23 0 -18 32 9 57 27 24 30 32
30 90 0 35 4 63 10 63 6 0 10 -8 10 -17 0 -20 46 -63 67 -63 7 0 13 -4 13 -9
0 -5 20 -12 45 -15 25 -4 45 -11 45 -17 0 -14 88 -11 93 4 3 9 9 9 26 -1 18
-10 21 -10 21 4 0 8 -4 12 -10 9 -6 -4 -10 13 -10 44 0 36 4 51 13 51 7 0 26
13 42 30 25 26 26 31 14 47 -13 16 -12 17 2 5 9 -7 24 -10 33 -6 13 5 16 0 16
-25 0 -21 5 -31 15 -31 8 0 15 6 15 14 0 8 6 16 14 19 10 4 12 0 9 -14 -3 -11
-9 -22 -14 -25 -5 -3 -9 -10 -9 -16 0 -11 51 -2 60 12 3 4 20 17 38 28 19 11
29 23 23 26 -11 7 -52 -12 -64 -31 -4 -7 -13 -13 -20 -13 -8 0 -8 3 -2 8 28
20 36 57 34 148 -2 51 0 97 4 100 4 4 7 20 7 35 0 15 6 30 13 33 9 5 9 7 0 12
-10 4 -10 10 2 27 8 12 15 43 15 70 0 52 13 73 51 80 17 3 13 5 -13 6 -41 1
-47 13 -23 45 17 22 20 56 6 56 -6 0 -13 -4 -16 -10 -3 -5 -13 -10 -21 -10
-10 0 -14 12 -14 40 0 22 -5 40 -11 40 -6 0 -8 9 -4 20 4 11 2 20 -4 20 -6 0
-11 7 -11 15 0 8 -4 15 -10 15 -12 0 -13 -27 -1 -32 5 -1 12 -18 16 -35 6 -29
4 -33 -13 -33 -12 0 -27 7 -36 15 -8 8 -19 15 -23 15 -13 0 -73 64 -73 78 0 7
-4 12 -10 12 -5 0 -10 6 -10 14 0 7 -7 19 -15 26 -13 10 -15 9 -15 -9z m-670
-561 c0 -5 -5 -10 -11 -10 -5 0 -7 5 -4 10 3 6 8 10 11 10 2 0 4 -4 4 -10z
m408 -207 c-10 -2 -28 -2 -40 0 -13 2 -5 4 17 4 22 1 32 -1 23 -4z m259 1 c-3
-3 -12 -4 -19 -1 -8 3 -5 6 6 6 11 1 17 -2 13 -5z m-189 -21 c-10 -2 -26 -2
-35 0 -10 3 -2 5 17 5 19 0 27 -2 18 -5z m159 1 c-3 -3 -12 -4 -19 -1 -8 3 -5
6 6 6 11 1 17 -2 13 -5z"/>
<path d="M2256 2521 c-5 -7 -5 -16 0 -20 16 -11 44 -60 44 -76 0 -8 5 -15 10
-15 6 0 10 9 10 20 0 11 -4 20 -10 20 -5 0 -10 7 -10 15 0 8 -4 15 -9 15 -5 0
-13 12 -18 27 -7 19 -12 23 -17 14z"/>
<path d="M2326 2350 l5 -55 -28 27 c-36 34 -83 47 -83 23 0 -11 5 -15 14 -12
8 3 26 -3 39 -14 14 -10 30 -19 36 -19 6 0 11 -4 11 -10 0 -5 7 -7 15 -4 16 7
20 54 6 70 -5 5 -12 18 -15 29 -3 11 -3 -5 0 -35z"/>
<path d="M2140 2260 c0 -44 4 -70 11 -70 12 0 6 -266 -5 -278 -3 -3 -6 -14 -6
-24 0 -10 -7 -18 -15 -18 -8 0 -15 -5 -15 -12 0 -6 -7 -19 -15 -28 -14 -16
-14 -18 0 -23 9 -4 15 -1 15 8 0 7 11 22 25 33 14 11 25 30 26 43 0 14 3 18 6
9 2 -8 8 -24 13 -35 5 -11 11 -27 14 -35 3 -8 4 3 1 25 -9 71 -15 170 -9 157
3 -6 24 -15 45 -18 l40 -7 -27 -28 c-15 -16 -34 -29 -41 -29 -7 0 -13 -4 -13
-10 0 -20 37 -9 63 18 15 15 27 32 27 36 0 5 10 17 22 27 11 11 16 19 10 19
-6 0 -14 -4 -17 -10 -10 -16 -65 -12 -83 7 -21 21 -25 143 -4 143 6 0 12 -6
12 -14 0 -13 20 -26 41 -26 5 0 9 32 9 70 0 40 -4 70 -10 70 -6 0 -10 -27 -10
-61 0 -54 -2 -59 -15 -45 -8 8 -15 19 -15 24 0 5 -7 15 -15 22 -13 10 -15 9
-15 -10 0 -19 -2 -20 -15 -10 -11 9 -15 32 -15 81 0 39 -4 69 -10 69 -6 0 -10
-30 -10 -70z m50 -166 c0 -8 -4 -12 -10 -9 -5 3 -10 10 -10 16 0 5 5 9 10 9 6
0 10 -7 10 -16z"/>
<path d="M2242 2300 c0 -19 2 -27 5 -17 2 9 2 25 0 35 -3 9 -5 1 -5 -18z"/>
<path d="M1820 2267 c-21 -11 -25 -21 -28 -65 -3 -45 0 -56 20 -72 29 -24 57
-25 86 -1 17 15 22 30 22 69 0 73 -39 100 -100 69z"/>
<path d="M1412 2247 c-21 -22 -31 -87 -14 -87 4 0 12 -10 17 -22 6 -15 24 -26
48 -32 32 -8 40 -7 57 12 29 31 27 102 -3 130 -31 29 -77 29 -105 -1z"/>
<path d="M1823 2072 c9 -2 17 -8 17 -13 0 -5 25 -9 55 -9 30 0 55 4 55 9 0 5
8 11 17 13 9 2 -23 3 -72 3 -49 0 -81 -1 -72 -3z"/>
<path d="M1466 2054 c-4 -9 -4 -19 -1 -22 3 -3 5 0 5 6 0 7 9 12 21 12 11 0
17 5 14 10 -10 16 -32 12 -39 -6z"/>
<path d="M1395 2040 c3 -5 15 -10 26 -10 10 0 19 5 19 10 0 6 -12 10 -26 10
-14 0 -23 -4 -19 -10z"/>
<path d="M1241 2004 c0 -11 3 -14 6 -6 3 7 2 16 -1 19 -3 4 -6 -2 -5 -13z"/>
<path d="M1700 1913 c-13 -15 -12 -16 4 -10 10 4 22 7 27 7 5 0 9 5 9 10 0 15
-23 11 -40 -7z"/>
<path d="M2206 1811 c-4 -7 -5 -15 -2 -18 9 -9 19 4 14 18 -4 11 -6 11 -12 0z"/>
<path d="M2130 1780 c0 -5 7 -7 15 -4 8 4 15 1 15 -5 0 -6 5 -11 11 -11 8 0 8
5 -1 15 -14 17 -40 20 -40 5z"/>
<path d="M2227 1764 c-8 -8 1 -24 14 -24 5 0 9 7 9 15 0 15 -12 20 -23 9z"/>
<path d="M1832 1608 c3 -7 13 -15 23 -17 17 -3 17 -2 3 13 -20 19 -31 21 -26
4z"/>
<path d="M1910 1610 c0 -5 4 -10 9 -10 5 0 16 -7 24 -15 8 -7 28 -17 43 -20
16 -3 22 -2 14 1 -8 4 -26 18 -39 31 -27 24 -51 30 -51 13z"/>
<path d="M1310 1575 c-13 -13 -32 -27 -42 -31 -10 -3 -16 -9 -13 -14 7 -12 65
19 73 39 3 9 10 19 16 23 8 6 8 8 0 8 -6 0 -21 -11 -34 -25z"/>
<path d="M2019 1549 c-10 -6 -8 -9 9 -9 12 0 25 -7 28 -15 7 -18 34 -20 34 -2
0 17 -54 37 -71 26z"/>
<path d="M1191 1490 c-26 -22 -24 -24 13 -10 14 5 26 14 26 20 0 15 -12 12
-39 -10z"/>
<path d="M2100 1500 c0 -5 5 -10 10 -10 6 0 10 5 10 10 0 6 -4 10 -10 10 -5 0
-10 -4 -10 -10z"/>
<path d="M2150 1470 c14 -11 40 -34 59 -51 18 -16 36 -27 39 -25 7 8 -18 36
-32 36 -6 1 -22 14 -36 30 -13 17 -31 30 -40 30 -10 -1 -8 -7 10 -20z"/>
<path d="M1135 1449 c-12 -19 5 -23 22 -6 16 16 16 17 1 17 -9 0 -20 -5 -23
-11z"/>
<path d="M1087 1411 c-3 -13 -1 -18 8 -14 19 7 27 33 11 33 -8 0 -16 -9 -19
-19z"/>
<path d="M1052 1374 c-14 -16 -5 -18 17 -5 7 5 9 11 5 14 -5 3 -15 -1 -22 -9z"/>
<path d="M2256 1373 c6 -4 14 -15 17 -23 5 -11 6 -9 4 4 -1 11 -9 21 -17 23
-10 3 -11 2 -4 -4z"/>
<path d="M1017 1330 c-9 -14 -17 -35 -17 -47 0 -13 -4 -23 -10 -23 -5 0 -10
-9 -10 -20 0 -37 18 -21 25 22 4 24 14 48 23 54 8 6 13 17 10 24 -3 10 -9 6
-21 -10z"/>
<path d="M2288 1334 c-12 -11 -10 -54 2 -54 6 0 10 -13 10 -30 0 -16 5 -30 10
-30 11 0 9 31 -3 60 -3 8 -7 26 -9 38 -2 13 -6 20 -10 16z"/>
<path d="M2244 1213 c-3 -38 -10 -70 -14 -73 -4 -3 -10 -22 -13 -42 -4 -28 -2
-38 7 -38 10 0 16 23 21 75 4 41 11 77 16 81 12 7 12 64 0 64 -5 0 -13 -30
-17 -67z"/>
<path d="M1037 1200 c3 -30 9 -56 14 -58 5 -2 9 -10 9 -18 0 -8 5 -14 10 -14
6 0 10 7 10 15 0 8 -4 15 -10 15 -5 0 -10 14 -10 30 0 17 -4 30 -9 30 -6 0
-12 12 -14 28 -2 15 -2 2 0 -28z"/>
<path d="M968 1173 c5 -59 10 -63 11 -10 1 26 -3 47 -7 47 -4 0 -6 -17 -4 -37z"/>
<path d="M2326 1175 c3 -22 9 -44 14 -50 4 -5 11 -31 14 -57 7 -47 26 -67 26
-28 0 11 -4 20 -9 20 -5 0 -11 23 -13 51 -3 28 -10 54 -15 58 -6 3 -13 15 -16
26 -4 11 -4 2 -1 -20z"/>
<path d="M1510 1193 c-36 -2 -74 -7 -85 -12 -11 -6 -47 -12 -79 -14 -33 -2
-62 -9 -64 -15 -2 -7 -9 -12 -17 -12 -7 0 -18 -7 -25 -15 -11 -13 -8 -14 21
-8 19 3 40 12 47 20 7 7 35 13 61 13 26 0 53 6 59 12 17 17 485 16 505 -1 15
-12 59 -19 120 -20 26 -1 37 -5 37 -16 0 -8 5 -15 10 -15 14 0 12 26 -2 38 -7
5 -44 13 -83 17 -38 4 -74 11 -80 15 -11 9 -328 19 -425 13z"/>
<path d="M2640 1139 c-12 -16 -20 -33 -17 -36 9 -8 27 7 27 22 0 16 35 29 50
20 5 -3 10 1 10 9 0 29 -47 19 -70 -15z"/>
<path d="M2717 1133 c-11 -10 -8 -63 3 -63 6 0 10 16 10 35 0 36 -2 40 -13 28z"/>
<path d="M1363 1105 c-17 -18 -24 -41 -29 -95 -7 -70 -7 -70 18 -70 25 0 39
20 42 60 1 10 10 14 27 12 16 -2 32 5 45 19 l19 21 5 -38 c5 -36 8 -39 39 -42
27 -3 40 3 67 29 l34 33 0 -32 c0 -22 5 -32 15 -32 10 0 15 -10 15 -30 0 -37
-8 -37 -67 -4 -32 18 -49 22 -56 15 -8 -8 -7 -11 1 -11 7 0 12 -7 12 -15 0 -8
4 -15 9 -15 5 0 12 -11 15 -25 4 -14 11 -25 16 -25 16 0 12 -27 -5 -34 -9 -3
-15 -18 -15 -34 0 -16 -9 -37 -20 -47 -11 -10 -17 -22 -13 -28 3 -5 0 -8 -8
-5 -8 3 -16 15 -17 28 -5 33 -28 52 -59 48 -26 -3 -28 -7 -31 -52 -3 -41 1
-53 20 -71 13 -11 31 -24 41 -28 21 -8 22 -26 2 -33 -17 -7 -21 -34 -5 -34 6
0 10 -7 10 -15 0 -8 9 -15 20 -15 19 0 47 -36 36 -48 -3 -3 -6 0 -6 6 0 7 -15
12 -34 12 -29 0 -36 -5 -44 -29 -9 -25 -7 -32 14 -50 28 -24 61 -27 88 -6 28
21 29 20 51 -30 11 -25 23 -45 27 -45 5 0 8 -6 8 -13 0 -7 5 -18 11 -24 21
-21 39 12 41 74 1 42 2 48 5 21 l4 -38 65 0 64 0 0 30 c0 17 -5 30 -12 30 -6
0 -8 3 -4 8 4 4 13 7 19 7 28 0 35 167 8 185 -7 4 -11 16 -9 26 2 14 10 18 29
16 36 -4 43 21 13 49 -29 27 -32 59 -5 59 21 0 48 27 37 37 -3 4 -25 9 -48 12
-44 6 -59 30 -32 52 8 7 11 20 8 35 -4 15 -2 24 5 24 6 0 11 8 11 18 0 12 4
10 13 -8 17 -34 61 -35 65 -1 2 13 -1 28 -7 34 -16 16 -13 27 7 27 11 0 33 7
51 16 43 22 38 48 -11 52 -29 2 -37 8 -40 25 -4 32 -55 36 -75 7 -11 -15 -23
-20 -39 -17 -15 2 -30 -3 -40 -14 -17 -18 -17 -18 -28 3 -18 35 -76 32 -94 -4
-17 -37 -32 -35 -32 2 0 25 -4 30 -24 30 -16 0 -27 -7 -31 -21 -9 -29 4 -38
21 -15 8 11 14 16 14 10 0 -5 -7 -17 -14 -26 -12 -17 -14 -17 -30 0 -9 10 -16
26 -16 35 0 20 -30 23 -48 5 -9 -9 -17 -7 -35 10 -31 29 -76 28 -104 -3z m530
-22 c-17 -6 -17 -50 -1 -55 7 -3 3 -7 -8 -10 -17 -4 -20 -1 -16 19 4 19 1 22
-14 16 -12 -4 -7 4 11 19 17 15 32 24 35 21 3 -3 -1 -8 -7 -10z m-423 -3 c0
-5 -4 -10 -10 -10 -5 0 -10 5 -10 10 0 6 5 10 10 10 6 0 10 -4 10 -10z m51
-63 c-13 -13 -15 31 -3 60 5 14 8 10 10 -16 2 -18 -1 -38 -7 -44z m218 41 c-1
-24 -3 -27 -6 -10 -2 12 -11 22 -19 22 -8 0 -14 5 -14 10 0 6 9 10 20 10 16 0
20 -6 19 -32z m-58 -25 c-10 -17 -10 -16 -11 3 0 23 13 41 18 25 2 -6 -1 -18
-7 -28z m139 32 c0 -13 -54 -55 -69 -54 -11 0 -9 3 6 9 12 5 28 18 35 30 12
19 28 27 28 15z m155 -15 c-27 -12 -35 -12 -35 0 0 6 12 10 28 9 24 0 25 -1 7
-9z m-603 -45 c-6 -47 -22 -55 -22 -11 0 19 6 37 13 39 6 3 12 6 12 6 1 1 -1
-15 -3 -34z m208 15 c0 -5 -4 -10 -10 -10 -5 0 -10 5 -10 10 0 6 5 10 10 10 6
0 10 -4 10 -10z m263 -10 c3 -11 1 -18 -4 -14 -5 3 -9 12 -9 20 0 20 7 17 13
-6z m-136 -12 c-3 -8 -6 -5 -6 6 -1 11 2 17 5 13 3 -3 4 -12 1 -19z m-157 2
c0 -5 -5 -10 -11 -10 -5 0 -7 5 -4 10 3 6 8 10 11 10 2 0 4 -4 4 -10z m350 -9
c0 -5 3 -17 7 -27 4 -11 3 -15 -4 -11 -14 9 -24 47 -12 47 5 0 9 -4 9 -9z
m-92 -41 c12 0 8 -8 -15 -32 -27 -27 -34 -29 -47 -18 -9 7 -16 19 -16 26 0 21
-30 17 -31 -3 -1 -17 -2 -17 -6 -1 -2 10 2 24 10 32 19 19 81 25 85 9 2 -7 11
-13 20 -13z m-190 -75 c-3 -3 -9 2 -12 12 -6 14 -5 15 5 6 7 -7 10 -15 7 -18z
m102 13 c0 -4 -7 -8 -15 -8 -8 0 -15 4 -15 8 0 5 7 9 15 9 8 0 15 -4 15 -9z
m82 -13 c-5 -28 -21 -34 -18 -7 1 13 13 31 22 32 1 0 -1 -11 -4 -25z m-127
-85 c20 11 27 11 40 0 21 -17 19 -35 -7 -65 -21 -24 -22 -24 -35 -5 -8 11 -21
20 -29 20 -8 0 -14 6 -14 14 0 7 -7 19 -15 26 -13 10 -15 9 -15 -9 0 -12 -4
-20 -9 -17 -10 6 -9 20 4 49 7 17 9 17 31 -4 21 -20 27 -21 49 -9z m180 10
c-3 -5 -12 -10 -20 -10 -7 0 -15 -6 -18 -12 -3 -7 -4 -3 -4 10 1 16 7 22 25
22 13 0 20 -4 17 -10z m-378 -76 c1 -25 0 -26 -4 -4 -3 14 -10 29 -17 33 -7 6
-6 7 4 4 8 -2 16 -16 17 -33z m346 11 c4 -8 2 -17 -3 -20 -6 -4 -10 3 -10 14
0 25 6 27 13 6z m-366 -27 c-3 -7 -5 -2 -5 12 0 14 2 19 5 13 2 -7 2 -19 0
-25z m177 20 c19 -18 0 -33 -49 -41 -29 -5 -36 -4 -25 4 11 8 12 12 3 15 -10
4 -10 8 0 19 15 18 54 19 71 3z m216 -18 c0 -5 -5 -10 -11 -10 -5 0 -7 5 -4
10 3 6 8 10 11 10 2 0 4 -4 4 -10z m-320 -58 c-29 -5 -51 15 -30 28 10 6 21 3
33 -8 19 -17 19 -17 -3 -20z m140 29 c0 -5 -3 -22 -6 -39 -5 -26 -9 -30 -24
-22 -9 5 -20 7 -23 4 -5 -6 -1 23 9 54 4 14 44 17 44 3z m-48 -133 c-9 -4 -13
-7 -9 -7 5 -1 5 -5 2 -11 -4 -6 -11 -5 -19 3 -8 6 -12 15 -10 19 2 4 0 9 -6
13 -5 3 -10 18 -10 32 l0 26 35 -34 c29 -29 32 -35 17 -41z m98 -22 c0 -3 -4
-8 -10 -11 -5 -3 -10 -1 -10 4 0 6 5 11 10 11 6 0 10 -2 10 -4z m-130 -16 c0
-5 -5 -10 -11 -10 -5 0 -7 5 -4 10 3 6 8 10 11 10 2 0 4 -4 4 -10z m68 -7 c-5
-25 -28 -28 -28 -4 0 12 6 21 16 21 9 0 14 -7 12 -17z m-57 -30 c-8 -15 -10
-15 -11 -2 0 17 10 32 18 25 2 -3 -1 -13 -7 -23z m-58 5 c15 -7 27 -15 27 -18
0 -6 -50 -30 -63 -30 -19 0 -35 33 -23 46 14 17 26 17 59 2z m85 -20 c-2 -8 6
-12 22 -11 l25 3 -25 -14 c-22 -13 -26 -13 -32 2 -10 25 -9 32 2 32 6 0 9 -6
8 -12z m174 -35 c30 -27 22 -38 -27 -35 -35 3 -45 8 -45 22 0 31 43 39 72 13z
m-132 -43 c0 -11 -4 -20 -9 -20 -5 0 -7 9 -4 20 3 11 7 20 9 20 2 0 4 -9 4
-20z"/>
<path d="M1660 755 c0 -8 9 -15 20 -15 11 0 20 7 20 15 0 8 -9 15 -20 15 -11
0 -20 -7 -20 -15z"/>
<path d="M951 1078 c-1 -25 -6 -48 -12 -50 -5 -2 -13 -39 -16 -83 -3 -44 -9
-82 -13 -85 -4 -3 -9 -50 -12 -105 -3 -55 -3 -81 -1 -57 2 23 8 42 12 42 5 0
12 52 16 115 4 63 11 115 15 115 10 0 24 123 17 142 -3 7 -6 -8 -6 -34z"/>
<path d="M1064 1058 c4 -18 11 -34 16 -36 6 -2 10 -13 10 -23 0 -11 5 -17 10
-14 15 9 12 34 -5 51 -8 9 -15 24 -15 35 0 10 -5 19 -11 19 -8 0 -9 -11 -5
-32z"/>
<path d="M2597 1083 c-13 -13 -7 -32 8 -27 8 4 15 12 15 20 0 15 -12 19 -23 7z"/>
<path d="M2110 1011 c0 -28 -4 -52 -8 -55 -5 -3 -11 -158 -15 -345 l-5 -341
-29 -24 c-15 -13 -24 -28 -20 -33 5 -4 13 0 18 10 6 9 16 17 23 17 13 0 66 51
66 63 0 4 -7 7 -15 7 -8 0 -15 -4 -15 -10 0 -5 -4 -10 -8 -10 -10 0 -9 146 1
156 4 4 7 119 7 255 0 154 4 250 10 254 6 3 10 28 10 56 0 27 -4 49 -10 49 -5
0 -10 -22 -10 -49z"/>
<path d="M2700 1044 c0 -8 -7 -22 -15 -30 -8 -9 -15 -23 -14 -32 0 -14 2 -14
6 -2 4 8 12 21 20 28 12 13 19 52 8 52 -3 0 -5 -7 -5 -16z"/>
<path d="M2565 1030 c-3 -6 1 -7 9 -4 18 7 21 14 7 14 -6 0 -13 -4 -16 -10z"/>
<path d="M2380 990 c0 -11 2 -20 4 -20 2 0 6 9 9 20 3 11 1 20 -4 20 -5 0 -9
-9 -9 -20z"/>
<path d="M2495 960 c-27 -27 -43 -50 -36 -50 16 0 81 61 81 76 0 7 6 15 13 17
6 3 7 6 2 6 -6 1 -33 -21 -60 -49z"/>
<path d="M1230 925 c0 -43 4 -75 10 -75 6 0 10 -67 10 -180 0 -113 4 -180 10
-180 6 0 10 67 10 180 0 113 -4 180 -10 180 -6 0 -10 32 -10 75 0 43 -4 75
-10 75 -6 0 -10 -32 -10 -75z"/>
<path d="M1963 994 c-7 -3 -13 -14 -13 -25 0 -14 10 -20 40 -25 22 -4 40 -10
40 -15 0 -18 19 -8 25 12 4 13 2 27 -7 35 -15 15 -66 26 -85 18z"/>
<path d="M2402 940 c0 -19 2 -27 5 -17 2 9 2 25 0 35 -3 9 -5 1 -5 -18z"/>
<path d="M2625 940 c-16 -17 -35 -30 -42 -30 -7 0 -13 -4 -13 -9 0 -5 -10 -12
-22 -14 -13 -2 -6 -3 14 -1 23 3 42 -1 52 -11 17 -18 36 -20 36 -4 0 8 4 8 14
0 9 -8 16 -8 20 -2 4 5 27 13 51 17 25 3 45 10 45 15 0 5 9 9 20 9 11 0 37 9
57 20 46 25 83 26 83 4 0 -21 -66 -84 -88 -84 -13 0 -14 -2 -3 -12 11 -10 14
-10 18 0 3 6 10 12 16 12 25 0 67 54 67 87 0 30 -3 33 -28 33 -31 0 -92 -26
-92 -39 0 -5 -19 -11 -42 -15 -23 -4 -48 -12 -56 -18 -10 -9 -16 -8 -23 3 -6
10 -9 10 -9 2 0 -8 -15 -13 -40 -13 -22 0 -40 5 -40 10 0 6 6 10 13 10 14 0
39 48 28 55 -5 2 -21 -9 -36 -25z"/>
<path d="M2414 895 c-4 -8 -10 -15 -16 -15 -12 0 -38 -26 -38 -37 0 -5 -13
-22 -30 -38 -25 -24 -30 -37 -30 -74 0 -25 -7 -55 -15 -65 -14 -18 -15 -11
-15 68 0 55 -4 85 -10 81 -16 -10 -13 -302 3 -309 10 -5 10 -7 0 -12 -16 -7
-18 -210 -3 -219 14 -9 12 -72 -2 -79 -10 -5 -10 -7 0 -12 6 -3 13 -20 14 -37
1 -18 4 -3 7 32 5 50 10 66 26 75 11 6 23 15 26 20 12 15 49 -28 49 -56 0 -39
29 -48 148 -47 115 1 146 8 151 34 2 11 14 30 27 42 23 21 24 29 24 140 0 128
-1 125 63 149 13 5 17 18 17 55 0 27 -4 49 -8 49 -12 0 -52 -44 -52 -57 0 -6
-6 -13 -12 -16 -7 -2 -10 -8 -6 -12 4 -4 18 6 32 21 l25 29 1 -27 c0 -16 -6
-29 -12 -29 -85 -9 -108 -7 -108 6 0 8 -5 15 -10 15 -9 0 13 44 30 60 28 27
42 122 20 135 -5 3 -10 13 -10 21 0 10 12 14 39 14 l38 0 6 -57 c3 -31 10 -59
15 -62 5 -3 12 -13 16 -21 3 -8 3 3 0 25 -3 22 -10 44 -15 49 -23 24 -5 75 31
88 8 3 -42 4 -112 2 -122 -3 -128 -2 -128 16 0 15 -7 20 -25 20 -29 0 -34 -16
-7 -23 11 -3 9 -5 -8 -6 -14 0 -41 -3 -60 -5 -29 -4 -30 -4 -6 2 42 10 45 30
4 24 -18 -3 -44 -15 -57 -28 l-24 -24 137 0 c123 0 136 -2 135 -17 0 -11 -3
-13 -6 -5 -6 16 -266 17 -312 1 -32 -11 -40 -24 -18 -32 10 -4 10 -6 0 -6 -9
-1 -13 -25 -13 -85 0 -62 -4 -87 -15 -96 -12 -10 -18 -10 -30 0 -18 15 -20 40
-4 40 6 0 9 9 6 20 -3 11 -1 20 4 20 5 0 9 9 9 20 0 11 5 20 10 20 6 0 10 19
10 43 0 37 6 50 43 90 24 26 48 47 55 47 7 0 12 4 12 9 0 5 3 16 6 25 3 9 1
16 -5 16 -7 0 -14 -7 -17 -15z m172 -255 c8 0 14 -4 14 -9 0 -5 -9 -7 -20 -4
-11 3 -20 13 -19 22 0 10 2 11 6 4 2 -7 11 -13 19 -13z m-53 -7 c-7 -3 -13
-11 -13 -19 0 -8 -7 -14 -15 -14 -10 0 -15 -10 -15 -30 0 -20 -5 -30 -15 -30
-17 0 -21 45 -5 55 20 12 9 25 -22 26 l-33 0 35 12 c19 7 49 10 65 8 17 -2 24
-6 18 -8z m89 -70 c-10 -28 -10 -28 -11 12 -1 28 2 36 10 28 8 -8 8 -19 1 -40z
m-302 -42 c5 -11 10 -67 10 -124 0 -88 -3 -106 -18 -120 -32 -29 -42 -3 -42
110 0 73 3 103 12 103 9 0 9 3 0 12 -7 7 -12 18 -12 25 0 20 38 15 50 -6z
m197 -7 c3 -8 0 -26 -7 -39 -7 -13 -10 -31 -7 -39 4 -9 2 -16 -3 -16 -5 0 -8
25 -7 55 2 54 12 70 24 39z m83 -49 c0 -37 -4 -65 -10 -65 -11 0 -13 51 -4 99
10 48 14 37 14 -34z m77 -37 c-2 -18 -4 -4 -4 32 0 36 2 50 4 33 2 -18 2 -48
0 -65z m-52 -230 c-53 -9 -174 -10 -205 0 -15 4 23 9 100 12 131 5 173 1 105
-12z"/>
<path d="M1040 825 c0 -14 5 -25 10 -25 6 0 10 11 10 25 0 14 -4 25 -10 25 -5
0 -10 -11 -10 -25z"/>
<path d="M1060 609 c0 -91 4 -138 10 -134 6 4 10 62 10 141 0 83 -4 134 -10
134 -6 0 -10 -54 -10 -141z"/>
<path d="M870 604 c0 -19 4 -33 8 -30 8 5 4 66 -4 66 -2 0 -4 -16 -4 -36z"/>
<path d="M2702 597 c-31 -33 -29 -65 2 -34 13 13 31 57 23 57 -2 0 -13 -10
-25 -23z"/>
<path d="M850 511 c0 -26 -2 -68 -4 -92 -2 -24 -1 -32 1 -16 2 15 8 27 14 27
5 0 9 29 9 65 0 37 -4 65 -10 65 -5 0 -10 -22 -10 -49z"/>
<path d="M1230 345 c0 -70 4 -115 10 -115 6 0 10 45 10 115 0 70 -4 115 -10
115 -6 0 -10 -45 -10 -115z"/>
<path d="M1045 441 c-3 -6 -1 -11 4 -11 7 0 11 -29 11 -75 l0 -76 -37 7 c-21
4 -44 13 -51 21 -7 7 -19 13 -27 13 -7 0 -15 6 -18 13 -3 9 -8 9 -16 1 -10 -9
-6 -13 13 -18 l26 -6 2 -158 2 -157 3 148 c2 86 8 147 13 147 6 0 10 -4 10 -9
0 -5 12 -11 28 -13 l27 -3 -3 -104 c-1 -58 -7 -110 -13 -118 -9 -10 -8 -13 5
-13 12 0 16 10 16 45 0 25 5 45 10 45 6 0 10 30 10 70 0 42 4 70 10 70 15 0 9
182 -7 187 -6 2 -14 -1 -18 -6z"/>
<path d="M1491 373 c-21 -8 -44 -35 -65 -74 -21 -39 -18 -107 4 -134 15 -18
115 -21 125 -4 5 6 13 3 22 -10 19 -28 54 -26 83 4 13 14 28 25 34 24 6 0 5
-3 -1 -6 -7 -2 -13 -15 -13 -27 0 -20 5 -23 50 -24 43 -1 50 2 50 19 0 10 -4
19 -10 19 -5 0 -10 -5 -10 -12 0 -6 -3 -9 -6 -5 -3 3 1 16 10 29 11 15 16 17
16 8 0 -25 46 -60 77 -60 31 0 49 16 72 61 30 60 -11 90 -60 43 -23 -22 -29
-24 -29 -11 0 9 -6 17 -14 17 -8 0 -16 10 -18 22 -2 13 -11 24 -20 26 -18 4
-48 -19 -48 -36 0 -5 -10 -17 -22 -28 l-21 -19 6 33 c7 36 -5 42 -35 15 -17
-15 -18 -15 -18 9 0 21 -6 27 -29 30 -16 2 -45 2 -66 0 -35 -4 -36 -6 -33 -41
2 -30 0 -36 -16 -36 -10 0 -24 8 -30 17 -8 14 -5 23 19 48 16 16 35 30 42 30
7 0 13 3 13 8 0 4 10 12 23 17 12 6 23 20 25 33 3 20 0 22 -45 21 -26 0 -54
-3 -62 -6z m89 -23 c0 -12 -8 -12 -35 0 -18 8 -17 9 8 9 15 1 27 -3 27 -9z
m-69 -38 c-7 -2 -18 1 -23 6 -8 8 -4 9 13 5 13 -4 18 -8 10 -11z m-36 -2 c3
-5 1 -10 -4 -10 -6 0 -11 5 -11 10 0 6 2 10 4 10 3 0 8 -4 11 -10z m-13 -42
c-7 -7 -12 -20 -12 -30 0 -10 -4 -18 -10 -18 -5 0 -10 5 -10 10 0 16 32 61 38
55 3 -3 0 -11 -6 -17z m124 -58 c5 -13 6 -13 14 0 8 12 10 11 10 -7 0 -30 -16
-38 -23 -11 -5 18 -9 19 -21 9 -13 -11 -13 -9 -3 19 6 17 13 25 15 18 2 -7 6
-20 8 -28z m234 -12 c0 -13 -32 -6 -37 9 -3 7 3 9 16 6 12 -3 21 -10 21 -15z
m78 -7 c-13 -15 -26 -26 -30 -24 -7 4 39 53 49 53 3 0 -6 -13 -19 -29z m-428
5 c0 -9 13 -16 33 -19 31 -4 31 -4 -5 -5 -21 -1 -38 0 -38 2 0 2 -3 11 -6 20
-3 9 -1 16 5 16 6 0 11 -6 11 -14z m167 -32 c-3 -3 -12 -4 -19 -1 -8 3 -5 6 6
6 11 1 17 -2 13 -5z m76 -9 c-3 -9 -8 -14 -10 -11 -3 3 -2 9 2 15 9 16 15 13
8 -4z m156 -12 c2 -2 -3 -3 -11 -3 -9 0 -19 7 -22 16 -6 15 -4 15 11 3 10 -7
20 -15 22 -16z"/>
<path d="M860 360 c0 -5 5 -10 10 -10 6 0 10 5 10 10 0 6 -4 10 -10 10 -5 0
-10 -4 -10 -10z"/>
<path d="M2080 159 c0 -34 3 -59 7 -55 11 11 12 105 2 112 -5 3 -9 -23 -9 -57z"/>
<path d="M1230 161 c0 -11 5 -23 10 -26 6 -4 10 5 10 19 0 14 -4 26 -10 26 -5
0 -10 -9 -10 -19z"/>
<path d="M1935 147 c-52 -57 -49 -57 -377 -57 -195 0 -299 -3 -292 -10 14 -14
653 -15 667 -1 6 6 24 11 39 11 15 0 28 5 28 10 0 6 -13 10 -29 10 -17 0 -33
-4 -36 -10 -3 -5 -13 -10 -21 -10 -10 0 -2 13 20 34 20 18 36 36 36 40 0 12
-15 5 -35 -17z"/>
<path d="M2288 114 c-12 -11 -9 -62 3 -69 16 -10 18 -4 10 38 -3 21 -9 35 -13
31z"/>
<path d="M1802 48 c-7 -7 -12 -18 -12 -25 0 -7 -7 -13 -17 -13 -9 0 -14 -3
-10 -6 10 -10 47 7 47 22 0 8 7 14 15 14 8 0 15 5 15 10 0 14 -23 13 -38 -2z"/>
<path d="M2076 51 c-3 -4 -19 -11 -36 -15 -17 -3 -39 -13 -48 -22 -15 -15 -14
-16 8 -9 14 4 27 12 28 16 2 5 17 9 32 9 30 0 48 14 31 24 -5 4 -12 2 -15 -3z"/>
</g>
</svg>
